<svg xmlns="http://www.w3.org/2000/svg" viewBox="0 0 33.75 33.75" role="img" aria-label="bN">
  <g transform="translate(0 33.75) scale(1 -1)">
    <path d="M 16.5 26.25 C 24.375 25.5 28.875 20.25 28.5 4.5 L 11.25 4.5 C 11.25 11.25 18.75 9.375 17.25 20.25 Z" fill="#000000" stroke="none"/>
    <path d="M 16.5 26.25 C 24.375 25.5 28.875 20.25 28.5 4.5 L 11.25 4.5 C 11.25 11.25 18.75 9.375 17.25 20.25" fill="none" stroke="#000000" stroke-width="1.125" stroke-linecap="butt" stroke-linejoin="miter"/>
    <path d="M 18 20.25 C 18.2852 18.0664 13.8359 14.7227 12 13.5 C 9.75 12 9.8867 10.2461 8.25 10.5 C 7.4688 11.2031 9.3086 12.7813 8.25 12.75 C 7.5 12.75 8.3906 11.8281 7.5 11.25 C 6.75 11.25 4.4961 10.5 4.5 14.25 C 4.5 15.75 9 23.25 9 23.25 C 9 23.25 10.418 24.6758 10.5 25.875 C 9.9531 26.6211 10.125 27.375 10.125 28.125 C 10.875 28.875 12.375 26.25 12.375 26.25 L 13.875 26.25 C 13.875 26.25 14.4609 27.7422 15.75 28.5 C 16.5 28.5 16.5 26.25 16.5 26.25 Z" fill="#000000" stroke="none"/>
    <path d="M 18 20.25 C 18.2852 18.0664 13.8359 14.7227 12 13.5 C 9.75 12 9.8867 10.2461 8.25 10.5 C 7.4688 11.2031 9.3086 12.7813 8.25 12.75 C 7.5 12.75 8.3906 11.8281 7.5 11.25 C 6.75 11.25 4.4961 10.5 4.5 14.25 C 4.5 15.75 9 23.25 9 23.25 C 9 23.25 10.418 24.6758 10.5 25.875 C 9.9531 26.6211 10.125 27.375 10.125 28.125 C 10.875 28.875 12.375 26.25 12.375 26.25 L 13.875 26.25 C 13.875 26.25 14.4609 27.7422 15.75 28.5 C 16.5 28.5 16.5 26.25 16.5 26.25" fill="none" stroke="#000000" stroke-width="1.125" stroke-linecap="butt" stroke-linejoin="miter"/>
    <path d="M 7.125 14.625 C 7.125 14.125 6.375 14.125 6.375 14.625 C 6.375 15.125 7.125 15.125 7.125 14.625 Z" fill="#ececec" stroke="none"/>
    <path d="M 11.1992 21.9375 C 10.8906 21.3945 10.4883 21.0391 10.3086 21.1445 C 10.1289 21.25 10.2383 21.7734 10.5508 22.3125 C 10.8594 22.8555 11.2617 23.2109 11.4414 23.1055 C 11.6211 23 11.5117 22.4766 11.1992 21.9375 Z" fill="#ececec" stroke="none"/>
    <path d="M 7.125 14.625 C 7.125 14.125 6.375 14.125 6.375 14.625 C 6.375 15.125 7.125 15.125 7.125 14.625 Z" fill="none" stroke="#ececec" stroke-width="1.125" stroke-linecap="butt" stroke-linejoin="miter"/>
    <path d="M 11.1992 21.9375 C 10.8906 21.3945 10.4883 21.0391 10.3086 21.1445 C 10.1289 21.25 10.2383 21.7734 10.5508 22.3125 C 10.8594 22.8555 11.2617 23.2109 11.4414 23.1055 C 11.6211 23 11.5117 22.4766 11.1992 21.9375 Z" fill="none" stroke="#ececec" stroke-width="1.125" stroke-linecap="butt" stroke-linejoin="miter"/>
    <path d="M 18.4141 25.9492 L 18.0742 24.8633 L 18.4492 24.75 C 20.8125 24 22.6875 22.8828 24.375 19.6875 C 26.0625 16.4922 26.8125 11.9531 26.4375 4.5 L 26.3984 4.125 L 28.0859 4.125 L 28.125 4.5 C 28.5 12.0469 27.4648 17.1367 25.6875 20.5039 C 23.9102 23.8711 21.3438 25.4844 18.7969 25.875 Z" fill="#ececec" stroke="none"/>
  </g>
</svg>
