<svg xmlns="http://www.w3.org/2000/svg" viewBox="0 0 33.75 33.75" role="img" aria-label="bR">
  <g transform="translate(0 33.75) scale(1 -1)">
    <path d="M 6.75 4.5 L 27 4.5 L 27 6.75 L 6.75 6.75 Z" fill="#000000" stroke="none"/>
    <path d="M 9.375 9.75 L 10.5 11.625 L 23.25 11.625 L 24.375 9.75 Z" fill="#000000" stroke="none"/>
    <path d="M 9 6.75 L 9 9.75 L 24.75 9.75 L 24.75 6.75 Z" fill="#000000" stroke="none"/>
    <path d="M 6.75 4.5 L 27 4.5 L 27 6.75 L 6.75 6.75 Z" fill="none" stroke="#000000" stroke-width="1.125" stroke-linecap="butt" stroke-linejoin="miter"/>
    <path d="M 9.375 9.75 L 10.5 11.625 L 23.25 11.625 L 24.375 9.75 Z" fill="none" stroke="#000000" stroke-width="1.125" stroke-linecap="butt" stroke-linejoin="miter"/>
    <path d="M 9 6.75 L 9 9.75 L 24.75 9.75 L 24.75 6.75 Z" fill="none" stroke="#000000" stroke-width="1.125" stroke-linecap="butt" stroke-linejoin="miter"/>
    <path d="M 10.5 21.375 L 23.25 21.375 L 23.25 11.625 L 10.5 11.625 Z" fill="#000000" stroke="none"/>
    <path d="M 10.5 21.375 L 23.25 21.375 L 23.25 11.625 L 10.5 11.625 Z" fill="none" stroke="#000000" stroke-width="1.125" stroke-linecap="butt" stroke-linejoin="miter"/>
    <path d="M 10.5 21.375 L 8.25 23.25 L 25.5 23.25 L 23.25 21.375 Z" fill="#000000" stroke="none"/>
    <path d="M 8.25 23.25 L 8.25 27 L 11.25 27 L 11.25 25.5 L 15 25.5 L 15 27 L 18.75 27 L 18.75 25.5 L 22.5 25.5 L 22.5 27 L 25.5 27 L 25.5 23.25 Z" fill="#000000" stroke="none"/>
    <path d="M 10.5 21.375 L 8.25 23.25 L 25.5 23.25 L 23.25 21.375 Z" fill="none" stroke="#000000" stroke-width="1.125" stroke-linecap="butt" stroke-linejoin="round"/>
    <path d="M 8.25 23.25 L 8.25 27 L 11.25 27 L 11.25 25.5 L 15 25.5 L 15 27 L 18.75 27 L 18.75 25.5 L 22.5 25.5 L 22.5 27 L 25.5 27 L 25.5 23.25 Z" fill="none" stroke="#000000" stroke-width="1.125" stroke-linecap="butt" stroke-linejoin="round"/>
    <path d="M 9 7.125 L 24.75 7.125" fill="none" stroke="#ececec" stroke-width="0.75" stroke-linecap="round" stroke-linejoin="miter"/>
    <path d="M 9.75 10.125 L 24 10.125" fill="none" stroke="#ececec" stroke-width="0.75" stroke-linecap="round" stroke-linejoin="miter"/>
    <path d="M 10.5 11.625 L 23.25 11.625" fill="none" stroke="#ececec" stroke-width="0.75" stroke-linecap="round" stroke-linejoin="miter"/>
    <path d="M 10.5 21.375 L 23.25 21.375" fill="none" stroke="#ececec" stroke-width="0.75" stroke-linecap="round" stroke-linejoin="miter"/>
    <path d="M 8.25 23.25 L 25.5 23.25" fill="none" stroke="#ececec" stroke-width="0.75" stroke-linecap="round" stroke-linejoin="miter"/>
  </g>
</svg>
