<svg xmlns="http://www.w3.org/2000/svg" viewBox="0 0 33.75 33.75" role="img" aria-label="wP">
  <g transform="translate(0 33.75) scale(1 -1)">
    <path d="M 16.875 27 C 15.2188 27 13.875 25.6563 13.875 24 C 13.875 23.332 14.0938 22.7188 14.4609 22.2148 C 12.9961 21.375 12 19.8086 12 18 C 12 16.4766 12.7031 15.1211 13.8086 14.2266 C 11.5586 13.4336 8.25 10.0664 8.25 4.125 L 25.5 4.125 C 25.5 10.0664 22.1914 13.4336 19.9414 14.2266 C 21.0469 15.1211 21.75 16.4766 21.75 18 C 21.75 19.8086 20.7539 21.375 19.2891 22.2148 C 19.6563 22.7188 19.875 23.332 19.875 24 C 19.875 25.6563 18.5313 27 16.875 27 Z" fill="#ffffff" stroke="none"/>
    <path d="M 16.875 27 C 15.2188 27 13.875 25.6563 13.875 24 C 13.875 23.332 14.0938 22.7188 14.4609 22.2148 C 12.9961 21.375 12 19.8086 12 18 C 12 16.4766 12.7031 15.1211 13.8086 14.2266 C 11.5586 13.4336 8.25 10.0664 8.25 4.125 L 25.5 4.125 C 25.5 10.0664 22.1914 13.4336 19.9414 14.2266 C 21.0469 15.1211 21.75 16.4766 21.75 18 C 21.75 19.8086 20.7539 21.375 19.2891 22.2148 C 19.6563 22.7188 19.875 23.332 19.875 24 C 19.875 25.6563 18.5313 27 16.875 27 Z" fill="none" stroke="#000000" stroke-width="1.125" stroke-linecap="butt" stroke-linejoin="miter"/>
  </g>
</svg>
