<svg xmlns="http://www.w3.org/2000/svg" viewBox="0 0 33.75 33.75" role="img" aria-label="bQ">
  <g transform="translate(0 33.75) scale(1 -1)">
    <path d="M 6.5625 24.75 C 6.5625 23.6094 5.6406 22.6875 4.5 22.6875 C 3.3594 22.6875 2.4375 23.6094 2.4375 24.75 C 2.4375 25.8906 3.3594 26.8125 4.5 26.8125 C 5.6406 26.8125 6.5625 25.8906 6.5625 24.75 Z" fill="#000000" stroke="none"/>
    <path d="M 12.5625 27 C 12.5625 25.8594 11.6406 24.9375 10.5 24.9375 C 9.3594 24.9375 8.4375 25.8594 8.4375 27 C 8.4375 28.1406 9.3594 29.0625 10.5 29.0625 C 11.6406 29.0625 12.5625 28.1406 12.5625 27 Z" fill="#000000" stroke="none"/>
    <path d="M 18.9375 27.75 C 18.9375 26.6094 18.0156 25.6875 16.875 25.6875 C 15.7344 25.6875 14.8125 26.6094 14.8125 27.75 C 14.8125 28.8906 15.7344 29.8125 16.875 29.8125 C 18.0156 29.8125 18.9375 28.8906 18.9375 27.75 Z" fill="#000000" stroke="none"/>
    <path d="M 25.3125 27 C 25.3125 25.8594 24.3906 24.9375 23.25 24.9375 C 22.1094 24.9375 21.1875 25.8594 21.1875 27 C 21.1875 28.1406 22.1094 29.0625 23.25 29.0625 C 24.3906 29.0625 25.3125 28.1406 25.3125 27 Z" fill="#000000" stroke="none"/>
    <path d="M 31.3125 24.75 C 31.3125 23.6094 30.3906 22.6875 29.25 22.6875 C 28.1094 22.6875 27.1875 23.6094 27.1875 24.75 C 27.1875 25.8906 28.1094 26.8125 29.25 26.8125 C 30.3906 26.8125 31.3125 25.8906 31.3125 24.75 Z" fill="#000000" stroke="none"/>
    <path d="M 6.75 14.25 C 13.125 15.375 22.5 15.375 27 14.25 L 28.875 23.625 L 23.25 15 L 23.0234 25.5742 L 19.125 15.375 L 16.875 26.25 L 14.625 15.375 L 10.7266 25.5742 L 10.5 15 L 4.875 23.625 Z" fill="#000000" stroke="none"/>
    <path d="M 6.75 14.25 C 13.125 15.375 22.5 15.375 27 14.25 L 28.875 23.625 L 23.25 15 L 23.0234 25.5742 L 19.125 15.375 L 16.875 26.25 L 14.625 15.375 L 10.7266 25.5742 L 10.5 15 L 4.875 23.625 Z" fill="none" stroke="#000000" stroke-width="1.125" stroke-linecap="butt" stroke-linejoin="round"/>
    <path d="M 6.75 14.25 C 6.75 12.75 7.875 12.75 8.625 11.25 C 9.375 10.125 9.375 10.5 9 8.625 C 7.875 7.875 7.875 6.75 7.875 6.75 C 6.75 5.625 8.25 4.875 8.25 4.875 C 13.125 4.125 20.625 4.125 25.5 4.875 C 25.5 4.875 26.625 5.625 25.5 6.75 C 25.5 6.75 25.875 7.875 24.75 8.625 C 24.375 10.5 24.375 10.125 25.125 11.25 C 25.875 12.75 27 12.75 27 14.25 C 20.625 15.375 13.125 15.375 6.75 14.25 Z" fill="#000000" stroke="none"/>
    <path d="M 6.75 14.25 C 6.75 12.75 7.875 12.75 8.625 11.25 C 9.375 10.125 9.375 10.5 9 8.625 C 7.875 7.875 7.875 6.75 7.875 6.75 C 6.75 5.625 8.25 4.875 8.25 4.875 C 13.125 4.125 20.625 4.125 25.5 4.875 C 25.5 4.875 26.625 5.625 25.5 6.75 C 25.5 6.75 25.875 7.875 24.75 8.625 C 24.375 10.5 24.375 10.125 25.125 11.25 C 25.875 12.75 27 12.75 27 14.25 C 20.625 15.375 13.125 15.375 6.75 14.25 Z" fill="none" stroke="#000000" stroke-width="1.125" stroke-linecap="butt" stroke-linejoin="round"/>
    <path d="M 8.25 4.875 C 13.8359 2.9336 19.9141 2.9336 25.5 4.875" fill="none" stroke="#000000" stroke-width="1.125" stroke-linecap="butt" stroke-linejoin="round"/>
    <path d="M 8.25 12 C 13.8359 13.9414 19.9141 13.9414 25.5 12" fill="none" stroke="#ececec" stroke-width="1.125" stroke-linecap="round" stroke-linejoin="round"/>
    <path d="M 9.375 10.125 L 24.375 10.125" fill="none" stroke="#ececec" stroke-width="1.125" stroke-linecap="round" stroke-linejoin="round"/>
    <path d="M 8.625 7.875 C 13.9805 6.1016 19.7695 6.1016 25.125 7.875" fill="none" stroke="#ececec" stroke-width="1.125" stroke-linecap="round" stroke-linejoin="round"/>
    <path d="M 7.875 5.625 C 13.6875 3.5039 20.0625 3.5039 25.875 5.625" fill="none" stroke="#ececec" stroke-width="1.125" stroke-linecap="round" stroke-linejoin="round"/>
  </g>
</svg>
