<svg xmlns="http://www.w3.org/2000/svg" viewBox="0 0 33.75 33.75" role="img" aria-label="wQ">
  <g transform="translate(0 33.75) scale(1 -1)">
    <path d="M 6.75 14.25 C 13.125 15.375 22.5 15.375 27 14.25 L 28.5 23.25 L 23.25 15 L 23.25 25.5 L 19.125 15.375 L 16.875 26.625 L 14.625 15.375 L 10.5 25.875 L 10.5 15 L 5.25 23.25 Z" fill="#ffffff" stroke="none"/>
    <path d="M 6.75 14.25 C 13.125 15.375 22.5 15.375 27 14.25 L 28.5 23.25 L 23.25 15 L 23.25 25.5 L 19.125 15.375 L 16.875 26.625 L 14.625 15.375 L 10.5 25.875 L 10.5 15 L 5.25 23.25 Z" fill="none" stroke="#000000" stroke-width="1.125" stroke-linecap="butt" stroke-linejoin="miter"/>
    <path d="M 6.75 14.25 C 6.75 12.75 7.875 12.75 8.625 11.25 C 9.375 10.125 9.375 10.5 9 8.625 C 7.875 7.875 7.875 6.75 7.875 6.75 C 6.75 5.625 8.25 4.875 8.25 4.875 C 13.125 4.125 20.625 4.125 25.5 4.875 C 25.5 4.875 26.625 5.625 25.5 6.75 C 25.5 6.75 25.875 7.875 24.75 8.625 C 24.375 10.5 24.375 10.125 25.125 11.25 C 25.875 12.75 27 12.75 27 14.25 C 20.625 15.375 13.125 15.375 6.75 14.25 Z" fill="#ffffff" stroke="none"/>
    <path d="M 6.75 14.25 C 6.75 12.75 7.875 12.75 8.625 11.25 C 9.375 10.125 9.375 10.5 9 8.625 C 7.875 7.875 7.875 6.75 7.875 6.75 C 6.75 5.625 8.25 4.875 8.25 4.875 C 13.125 4.125 20.625 4.125 25.5 4.875 C 25.5 4.875 26.625 5.625 25.5 6.75 C 25.5 6.75 25.875 7.875 24.75 8.625 C 24.375 10.5 24.375 10.125 25.125 11.25 C 25.875 12.75 27 12.75 27 14.25 C 20.625 15.375 13.125 15.375 6.75 14.25 Z" fill="none" stroke="#000000" stroke-width="1.125" stroke-linecap="butt" stroke-linejoin="miter"/>
    <path d="M 8.625 11.25 C 11.25 12 22.5 12 25.125 11.25" fill="none" stroke="#000000" stroke-width="1.125" stroke-linecap="round" stroke-linejoin="miter"/>
    <path d="M 9 8.625 C 13.5 9.375 20.25 9.375 24.75 8.625" fill="none" stroke="#000000" stroke-width="1.125" stroke-linecap="round" stroke-linejoin="miter"/>
    <path d="M 6 24.75 C 6 22.75 3 22.75 3 24.75 C 3 26.75 6 26.75 6 24.75 Z" fill="#ffffff" stroke="none"/>
    <path d="M 18.375 28.125 C 18.375 26.125 15.375 26.125 15.375 28.125 C 15.375 30.125 18.375 30.125 18.375 28.125 Z" fill="#ffffff" stroke="none"/>
    <path d="M 30.75 24.75 C 30.75 22.75 27.75 22.75 27.75 24.75 C 27.75 26.75 30.75 26.75 30.75 24.75 Z" fill="#ffffff" stroke="none"/>
    <path d="M 12 27.375 C 12 25.375 9 25.375 9 27.375 C 9 29.375 12 29.375 12 27.375 Z" fill="#ffffff" stroke="none"/>
    <path d="M 24.75 27 C 24.75 25 21.75 25 21.75 27 C 21.75 29 24.75 29 24.75 27 Z" fill="#ffffff" stroke="none"/>
    <path d="M 6 24.75 C 6 22.75 3 22.75 3 24.75 C 3 26.75 6 26.75 6 24.75 Z" fill="none" stroke="#000000" stroke-width="1.125" stroke-linecap="round" stroke-linejoin="miter"/>
    <path d="M 18.375 28.125 C 18.375 26.125 15.375 26.125 15.375 28.125 C 15.375 30.125 18.375 30.125 18.375 28.125 Z" fill="none" stroke="#000000" stroke-width="1.125" stroke-linecap="round" stroke-linejoin="miter"/>
    <path d="M 30.75 24.75 C 30.75 22.75 27.75 22.75 27.75 24.75 C 27.75 26.75 30.75 26.75 30.75 24.75 Z" fill="none" stroke="#000000" stroke-width="1.125" stroke-linecap="round" stroke-linejoin="miter"/>
    <path d="M 12 27.375 C 12 25.375 9 25.375 9 27.375 C 9 29.375 12 29.375 12 27.375 Z" fill="none" stroke="#000000" stroke-width="1.125" stroke-linecap="round" stroke-linejoin="miter"/>
    <path d="M 24.75 27 C 24.75 25 21.75 25 21.75 27 C 21.75 29 24.75 29 24.75 27 Z" fill="none" stroke="#000000" stroke-width="1.125" stroke-linecap="round" stroke-linejoin="miter"/>
  </g>
</svg>
